<svg xmlns="http://www.w3.org/2000/svg" id="Layer_1" data-name="Layer 1" width="189.68" height="57.45" viewBox="0 0 189.68 57.45"><defs><style>
      .cls-1 {
        fill: #fff;
      }
    </style></defs><g id="Layer_1-2" data-name="Layer 1-2"><path class="cls-1" d="M99.5,42.78H91.71V26h7.53c3.41,0,5.44,1.69,5.44,4.34a3.79,3.79,0,0,1-2.84,3.81,4.06,4.06,0,0,1,3.22,4C105.06,41,103,42.78,99.5,42.78Zm-1-13.47H95.78v3.5h2.67c1.34,0,2.08-.59,2.08-1.74s-.74-1.76-2.08-1.76Zm.29,6.48h-3v3.7h3c1.36,0,2.14-.62,2.14-1.81s-.83-1.89-2.19-1.89Z" transform="translate(-20.67 -15.14)"></path><path class="cls-1" d="M107.35,26h4.07V36c0,2,1,3.12,2.91,3.12a2.79,2.79,0,0,0,3-3.12V26h4.08V36c0,4.63-3.25,6.92-7.11,6.92s-6.91-2.29-6.91-6.92Z" transform="translate(-20.67 -15.14)"></path><path class="cls-1" d="M128.31,26V39.63h5.34v3.15h-9.42V26Z" transform="translate(-20.67 -15.14)"></path><path class="cls-1" d="M139.68,35.39v7.39H135.6V26h4.08v7.34L145.26,26h4.8l-6.49,8.2,6.72,8.54h-5Z" transform="translate(-20.67 -15.14)"></path><path class="cls-1" d="M99.5,64.64H91.71V47.9h7.53c3.41,0,5.44,1.69,5.44,4.34a3.8,3.8,0,0,1-2.84,3.81,4.06,4.06,0,0,1,3.22,4C105.06,62.85,103,64.64,99.5,64.64Zm-1-13.48H95.78v3.51h2.67c1.34,0,2.08-.6,2.08-1.74s-.74-1.77-2.08-1.77Zm.29,6.49h-3v3.69h3c1.36,0,2.14-.62,2.14-1.81s-.83-1.88-2.19-1.88Z" transform="translate(-20.67 -15.14)"></path><path class="cls-1" d="M114.26,47.9c4.1,0,6.15,2.36,6.15,5.26A4.87,4.87,0,0,1,116.69,58l3.87,6.62H116l-3.47-6.32h-1v6.32h-4.08V47.9ZM114,51.28h-2.53v4.15H114c1.53,0,2.24-.79,2.24-2.1S115.55,51.28,114,51.28Z" transform="translate(-20.67 -15.14)"></path><path class="cls-1" d="M133.38,61.68h-6.24l-1,3h-4.27l6-16.74h4.73l6,16.74h-4.32Zm-3.12-9.28-2,6.13h4.13Z" transform="translate(-20.67 -15.14)"></path><path class="cls-1" d="M155.51,47.9V64.64h-4.08l-6.82-10.33V64.64h-4.07V47.9h4.07l6.82,10.37V47.9Z" transform="translate(-20.67 -15.14)"></path><path class="cls-1" d="M173.51,56.26c0,5-3.43,8.38-8.77,8.38h-6.27V47.9h6.27C170.08,47.9,173.51,51.28,173.51,56.26Zm-9,4.85c3.07,0,4.88-1.77,4.88-4.85s-1.81-4.88-4.88-4.88h-1.94v9.73Z" transform="translate(-20.67 -15.14)"></path><path class="cls-1" d="M186.05,51.16h-6.17v3.39h5.46V57.7h-5.46v3.67h6.17v3.27H175.8V47.9h10.25Z" transform="translate(-20.67 -15.14)"></path><path class="cls-1" d="M203.75,56.26c0,5-3.44,8.38-8.78,8.38H188.7V47.9H195C200.31,47.9,203.75,51.28,203.75,56.26Zm-9,4.85c3.08,0,4.89-1.77,4.89-4.85s-1.81-4.88-4.89-4.88h-1.93v9.73Z" transform="translate(-20.67 -15.14)"></path><path class="cls-1" d="M207.94,64.83a2.23,2.23,0,1,1,2.41-2.2,2.26,2.26,0,0,1-2.31,2.2Z" transform="translate(-20.67 -15.14)"></path><polygon class="cls-1" points="37.85 15.91 18.99 26.8 18.99 48.65 18.93 48.69 0 37.76 0 15.91 18.93 4.98 18.99 5.02 37.85 15.91"></polygon><path class="cls-1" d="M52,60.33l-5.48,3.46V47.73l5.31-3.17c2.36-1.4,3.75-.64,3.75,1.85a7,7,0,0,1-2,4.78c1.34-.44,2.21.64,2.21,2.44A8,8,0,0,1,52,60.33ZM51.29,48l-1.87,1.12v3.35l1.87-1.15a2.83,2.83,0,0,0,1.45-2.52c0-1.09-.52-1.37-1.45-.81Zm.2,6-2.07,1.3v3.53l2.11-1.32A3,3,0,0,0,53,54.87C53,53.74,52.44,53.45,51.49,54Z" transform="translate(-20.67 -15.14)"></path><path class="cls-1" d="M62.68,53.59l-5.22,3.3V41.21l5-3c2.25-1.34,3.57-.58,3.57,1.85a6.77,6.77,0,0,1-1.86,4.65c1.29-.42,2.11.65,2.11,2.4A7.69,7.69,0,0,1,62.68,53.59ZM62,41.54l-1.8,1.07v3.27L62,44.79a2.76,2.76,0,0,0,1.37-2.45C63.36,41.28,62.87,41,62,41.54Zm.19,5.89-2,1.22v3.44l2-1.25a3,3,0,0,0,1.42-2.56c0-1.1-.56-1.4-1.46-.85Z" transform="translate(-20.67 -15.14)"></path><polygon class="cls-1" points="56.27 56.97 54.47 57.45 54.47 0.32 56.27 0 56.27 56.97"></polygon></g></svg>